<svg width="112" height="59" viewBox="0 0 112 59" fill="none" xmlns="http://www.w3.org/2000/svg">
<path fill-rule="evenodd" clip-rule="evenodd" d="M47.2843 32.7152C44.7432 42.6529 35.7296 50 25 50C12.2975 50 2 39.7025 2 27C2 14.2975 12.2975 4 25 4C36.0408 4 45.2646 11.7794 47.489 22.1558L52.6663 27.3332L47.2843 32.7152Z" fill="white"/>
<path d="M36 25.1111C36 18.1667 31.0754 14 25 14C18.9252 14 14 18.1667 14 25.1111C14 28.9819 14.0014 32.325 18.125 33.8889V36.9167C18.125 38.0674 19.0483 39 20.1875 39C21.3267 39 22.25 38.0674 22.25 36.9167V34.7257C22.4728 34.7444 22.7031 34.7604 22.9375 34.7743V36.9167C22.9375 38.0674 23.8608 39 25 39C26.1392 39 27.0625 38.0674 27.0625 36.9167V34.7743C27.2976 34.7604 27.5273 34.7444 27.75 34.7257V36.9167C27.75 38.0674 28.674 39 29.8125 39C30.9517 39 31.875 38.0674 31.875 36.9167V33.8889C35.9986 32.325 36 28.9819 36 25.1111Z" fill="#BCBEC0"/>
<path d="M24 24C24 25.6566 24 27 20 27C16 27 16 25.6566 16 24C16 22.3434 17.7912 21 20 21C22.2088 21 24 22.3434 24 24Z" fill="#414042"/>
<path d="M34 24C34 25.6566 34 27 30 27C26 27 26 25.6566 26 24C26 22.3434 27.7904 21 30 21C32.2096 21 34 22.3434 34 24Z" fill="#414042"/>
<path d="M26.2687 29.7965C26.1007 29.3375 25.6 29 25 29C24.4 29 23.8987 29.3375 23.7307 29.7965C23.31 29.9292 23 30.3597 23 30.875C23 31.4967 23.4473 32 24 32C24.436 32 24.8033 31.6843 24.94 31.2455C24.96 31.2463 24.9793 31.25 25 31.25C25.02 31.25 25.0393 31.2463 25.06 31.2455C25.1967 31.6843 25.5633 32 26 32C26.552 32 27 31.4967 27 30.875C27 30.3597 26.6893 29.93 26.2687 29.7965Z" fill="#6D6E71"/>
</svg>
