<svg width="126" height="71" viewBox="0 0 126 71" fill="none" xmlns="http://www.w3.org/2000/svg">
<g clip-path="url(#clip0)">
<g filter="url(#filter0_d)">
<path fill-rule="evenodd" clip-rule="evenodd" d="M61.2843 39.7152C58.7432 49.6529 49.7296 57 39 57C26.2975 57 16 46.7025 16 34C16 21.2975 26.2975 11 39 11C50.0408 11 59.2646 18.7794 61.489 29.1558L66.6663 34.3332L61.2843 39.7152Z" fill="white"/>
</g>
<path d="M50 32.1111C50 25.1667 45.0754 21 39 21C32.9252 21 28 25.1667 28 32.1111C28 35.9819 28.0014 39.325 32.125 40.8889V43.9167C32.125 45.0674 33.0483 46 34.1875 46C35.3267 46 36.25 45.0674 36.25 43.9167V41.7257C36.4728 41.7444 36.7031 41.7604 36.9375 41.7743V43.9167C36.9375 45.0674 37.8608 46 39 46C40.1392 46 41.0625 45.0674 41.0625 43.9167V41.7743C41.2976 41.7604 41.5273 41.7444 41.75 41.7257V43.9167C41.75 45.0674 42.674 46 43.8125 46C44.9517 46 45.875 45.0674 45.875 43.9167V40.8889C49.9986 39.325 50 35.9819 50 32.1111Z" fill="#BCBEC0"/>
<path d="M38 31C38 32.6566 38 34 34 34C30 34 30 32.6566 30 31C30 29.3434 31.7912 28 34 28C36.2088 28 38 29.3434 38 31Z" fill="#414042"/>
<path d="M48 31C48 32.6566 48 34 44 34C40 34 40 32.6566 40 31C40 29.3434 41.7904 28 44 28C46.2096 28 48 29.3434 48 31Z" fill="#414042"/>
<circle cx="37" cy="37" r="1" fill="#414042"/>
<circle cx="41" cy="37" r="1" fill="#414042"/>
</g>
<defs>
<filter id="filter0_d" x="3" y="-1" width="76.6663" height="72" filterUnits="userSpaceOnUse" color-interpolation-filters="sRGB">
<feFlood flood-opacity="0" result="BackgroundImageFix"/>
<feColorMatrix in="SourceAlpha" type="matrix" values="0 0 0 0 0 0 0 0 0 0 0 0 0 0 0 0 0 0 127 0"/>
<feOffset dy="1"/>
<feGaussianBlur stdDeviation="6.5"/>
<feColorMatrix type="matrix" values="0 0 0 0 0.149578 0 0 0 0 0.206882 0 0 0 0 0.231441 0 0 0 0.15 0"/>
<feBlend mode="normal" in2="BackgroundImageFix" result="effect1_dropShadow"/>
<feBlend mode="normal" in="SourceGraphic" in2="effect1_dropShadow" result="shape"/>
</filter>
<clipPath id="clip0">
<rect width="126" height="71" fill="white"/>
</clipPath>
</defs>
</svg>
