<svg width="50" height="118" viewBox="0 0 50 118" fill="none" xmlns="http://www.w3.org/2000/svg">
<path fill-rule="evenodd" clip-rule="evenodd" d="M30.4667 49.3464C40.5302 46.893 48 37.8189 48 27C48 14.2975 37.7025 4 25 4C12.2975 4 2 14.2975 2 27C2 37.638 9.22221 46.5892 19.0309 49.2178L24.8131 55L30.4667 49.3464Z" fill="white"/>
<path d="M19.4776 20.5734C16.5653 24.6006 11.465 26.5083 11.465 26.5083C10.5134 27.3114 11.3171 28.258 11.3171 28.258L19.3537 37.7384C19.3537 37.7384 19.7555 38.2125 21.109 37.8842C21.109 37.8842 26.2093 35.9795 29.1209 31.9523C32.1225 27.8024 37.5354 26.4922 37.5354 26.4922C38.4862 25.6891 37.6832 24.7417 37.6832 24.7417L29.6467 15.2628C29.6467 15.2628 29.2448 14.788 27.8914 15.1148C27.8914 15.1148 22.4793 16.4219 19.4776 20.5734Z" fill="#A7D28B"/>
<path d="M21.9952 18C21.2698 18.6403 20.5731 19.3868 19.98 20.2687C19.3933 21.1406 18.7089 21.9071 18 22.5828L27.0062 34C27.7144 33.3236 28.3988 32.5571 28.9855 31.6852C29.5786 30.804 30.2753 30.0568 31 29.4165L21.9952 18Z" fill="#9AAAB4"/>
<path d="M36.1629 37.3961C36.1698 37.39 36.1775 37.3854 36.1844 37.38C36.2374 37.327 36.2773 37.2671 36.3234 37.2103C36.3557 37.1704 36.3918 37.132 36.4217 37.0913C36.4486 37.0529 36.4708 37.0137 36.4954 36.9738C37.5859 35.295 36.8717 32.4467 34.7123 30.2873C32.5536 28.1286 29.7053 27.4136 28.0259 28.5049C27.9867 28.5287 27.9475 28.551 27.9084 28.5786C27.8677 28.6086 27.8285 28.6447 27.7901 28.6761C27.7325 28.7222 27.6726 28.7629 27.6204 28.8151C27.6135 28.822 27.6089 28.8305 27.6035 28.8366C27.5951 28.8451 27.5843 28.8512 27.5751 28.8604L27.5797 28.8643C26.8118 29.6791 26.8033 30.9416 27.5751 31.7149C28.3492 32.4882 29.6109 32.4782 30.4264 31.7103L30.4349 31.7187C30.4195 31.7341 30.4011 31.7448 30.3865 31.7594C29.5733 32.5727 29.5541 33.8697 30.3412 34.6592C31.1291 35.4463 32.4277 35.4271 33.2401 34.6139C33.2555 34.5985 33.2663 34.5809 33.2808 34.564L33.2893 34.5732C32.5214 35.3895 32.5114 36.6505 33.2855 37.4245C34.0588 38.1971 35.3197 38.1879 36.1353 37.4199L36.1399 37.4245C36.1475 37.4153 36.1545 37.4053 36.1629 37.3961Z" fill="#E1E8ED"/>
<path d="M26.6091 29.9999C26.8518 30.6306 28.3347 31.8373 30 30.7122C30 30.9591 29.7581 32.1112 28.5774 32.7695C27.3967 33.4278 26.0642 32.5779 26.0039 31.4529C25.9436 30.3291 26.6091 29.9999 26.6091 29.9999Z" fill="#CCD6DD"/>
<path d="M29.6049 31.9999C29.9983 33.7884 31.9915 34.683 33.002 33.629C32.8046 34.2039 31.9915 35.5133 31.3179 35.8007C30.6443 36.0882 28.0892 36.1526 28.005 35.386C27.9208 34.6194 29.6049 31.9999 29.6049 31.9999Z" fill="#CCD6DD"/>
<path d="M32.481 34.9999C32.6097 35.5917 34.2257 37.8518 36.4868 36.7042C36.8428 37.3302 37.8756 39.0345 35.3555 38.9994C32.8354 38.9644 30.606 39.0345 31.0589 37.8518C31.5117 36.6692 32.481 34.9999 32.481 34.9999Z" fill="#CCD6DD"/>
<path d="M22.5515 29.9532C21.3668 28.5199 18.858 30.8454 18.1435 29.9804C17.7973 29.5614 18.0195 29.0181 18.4745 28.6264C19.2392 27.9658 19.7909 28.3497 20.1371 28.0513C20.3829 27.8399 20.37 27.5803 20.2239 27.4031C19.8845 26.9927 19.017 27.2072 18.3428 27.6051L18.0149 27.2088C17.811 26.9608 17.448 26.929 17.206 27.1388C16.9633 27.3479 16.9329 27.7171 17.1375 27.9642L17.4777 28.3762C16.9625 29.0741 16.7875 30.0006 17.3963 30.7366C18.5346 32.1115 21.0738 29.8257 21.8728 30.7926C22.1498 31.1283 22.0721 31.7688 21.4893 32.2708C20.6157 33.0255 19.8244 32.6719 19.469 32.9789C19.2963 33.1273 19.2643 33.4095 19.4492 33.6341C19.7445 33.9893 20.6819 33.9139 21.5844 33.3395C21.5852 33.3411 21.5852 33.3426 21.5859 33.3442L21.9565 33.7919C22.1612 34.0398 22.5234 34.0701 22.7661 33.8618C23.0088 33.6528 23.0385 33.282 22.8338 33.0349L22.4633 32.5872C22.4595 32.5825 22.4534 32.5794 22.4496 32.5747C23.0575 31.8146 23.263 30.812 22.5515 29.9532Z" fill="#67757F"/>
<path d="M22.1631 22.3964C22.17 22.3903 22.1777 22.3857 22.1846 22.3795C22.2376 22.3265 22.2775 22.2674 22.3236 22.2098C22.3558 22.1707 22.3911 22.1323 22.4211 22.0908C22.4487 22.0524 22.471 22.0132 22.4956 21.9741C23.586 20.2947 22.8711 17.4465 20.7124 15.288C18.5538 13.1286 15.7055 12.4137 14.0261 13.5049C13.9869 13.5287 13.9477 13.5517 13.9086 13.5786C13.8679 13.6086 13.8295 13.6447 13.7895 13.6769C13.7327 13.723 13.6736 13.7629 13.6206 13.8159C13.6137 13.822 13.6091 13.8305 13.6037 13.8374C13.5945 13.8451 13.5845 13.852 13.5761 13.8604L13.5799 13.8643C12.812 14.6798 12.8027 15.9414 13.5761 16.7147C14.3494 17.488 15.6111 17.4788 16.4266 16.7109L16.4351 16.7193C16.4197 16.7339 16.402 16.7447 16.3867 16.7593C15.5727 17.5725 15.5535 18.8702 16.3414 19.6589C17.1293 20.4467 18.4271 20.4268 19.2403 19.6135C19.2557 19.5982 19.2664 19.5805 19.281 19.5644L19.2895 19.5736C18.5215 20.3891 18.5116 21.65 19.2856 22.4241C20.0589 23.1973 21.3199 23.1881 22.1354 22.4195L22.14 22.4241C22.1477 22.4156 22.1546 22.4056 22.1631 22.3964Z" fill="#E1E8ED"/>
<path d="M12.6111 15C12.8531 15.6306 14.3367 16.8377 16.002 15.7128C16.002 15.9597 15.7593 17.1115 14.5786 17.7697C13.398 18.4279 12.0662 17.5775 12.0059 16.4533C11.9449 15.3291 12.6111 15 12.6111 15Z" fill="#CCD6DD"/>
<path d="M15.6051 17C15.9979 18.7885 17.9914 19.6831 19.002 18.629C18.8052 19.204 17.9914 20.5133 17.3177 20.8008C16.644 21.0883 14.0892 21.1527 14.005 20.3861C13.9208 19.6195 15.6051 17 15.6051 17Z" fill="#CCD6DD"/>
<path d="M18.4822 20C18.6117 20.5909 20.227 22.8519 22.4891 21.7043C22.8442 22.3303 23.8779 24.0337 21.3577 23.9995C18.8374 23.9644 16.608 24.0337 17.0608 22.8519C17.5129 21.6692 18.4822 20 18.4822 20Z" fill="#CCD6DD"/>
</svg>
