<svg width="68" height="125" viewBox="0 0 68 125" fill="none" xmlns="http://www.w3.org/2000/svg">
<g clip-path="url(#clip0)">
<g filter="url(#filter0_d)">
<path fill-rule="evenodd" clip-rule="evenodd" d="M38.4667 56.3464C48.5302 53.893 56 44.8189 56 34C56 21.2975 45.7025 11 33 11C20.2975 11 10 21.2975 10 34C10 44.638 17.2222 53.5892 27.0309 56.2178L32.8131 62L38.4667 56.3464Z" fill="white"/>
</g>
<path d="M27.4776 27.5734C24.5653 31.6006 19.465 33.5083 19.465 33.5083C18.5134 34.3114 19.3171 35.258 19.3171 35.258L27.3537 44.7384C27.3537 44.7384 27.7555 45.2125 29.109 44.8842C29.109 44.8842 34.2093 42.9795 37.1209 38.9523C40.1225 34.8024 45.5354 33.4922 45.5354 33.4922C46.4862 32.6891 45.6832 31.7417 45.6832 31.7417L37.6467 22.2628C37.6467 22.2628 37.2448 21.788 35.8914 22.1148C35.8914 22.1148 30.4793 23.4219 27.4776 27.5734Z" fill="#A7D28B"/>
<path d="M29.9952 25C29.2698 25.6403 28.5731 26.3868 27.98 27.2687C27.3933 28.1406 26.7089 28.9071 26 29.5828L35.0062 41C35.7144 40.3236 36.3988 39.5571 36.9855 38.6852C37.5786 37.804 38.2753 37.0568 39 36.4165L29.9952 25Z" fill="#9AAAB4"/>
<path d="M44.1629 44.3961C44.1698 44.39 44.1775 44.3854 44.1844 44.38C44.2374 44.327 44.2773 44.2671 44.3234 44.2103C44.3557 44.1704 44.3918 44.132 44.4217 44.0913C44.4486 44.0529 44.4708 44.0137 44.4954 43.9738C45.5859 42.295 44.8717 39.4467 42.7123 37.2873C40.5536 35.1286 37.7053 34.4136 36.0259 35.5049C35.9867 35.5287 35.9475 35.551 35.9084 35.5786C35.8677 35.6086 35.8285 35.6447 35.7901 35.6761C35.7325 35.7222 35.6726 35.7629 35.6204 35.8151C35.6135 35.822 35.6089 35.8305 35.6035 35.8366C35.5951 35.8451 35.5843 35.8512 35.5751 35.8604L35.5797 35.8643C34.8118 36.6791 34.8033 37.9416 35.5751 38.7149C36.3492 39.4882 37.6109 39.4782 38.4264 38.7103L38.4349 38.7187C38.4195 38.7341 38.4011 38.7448 38.3865 38.7594C37.5733 39.5727 37.5541 40.8697 38.3412 41.6592C39.1291 42.4463 40.4277 42.4271 41.2401 41.6139C41.2555 41.5985 41.2663 41.5809 41.2808 41.564L41.2893 41.5732C40.5214 42.3895 40.5114 43.6505 41.2855 44.4245C42.0588 45.1971 43.3197 45.1879 44.1353 44.4199L44.1399 44.4245C44.1475 44.4153 44.1545 44.4053 44.1629 44.3961Z" fill="#E1E8ED"/>
<path d="M34.6091 36.9999C34.8518 37.6306 36.3347 38.8373 38 37.7122C38 37.9591 37.7581 39.1112 36.5774 39.7695C35.3967 40.4278 34.0642 39.5779 34.0039 38.4529C33.9436 37.3291 34.6091 36.9999 34.6091 36.9999Z" fill="#CCD6DD"/>
<path d="M37.6049 38.9999C37.9983 40.7884 39.9915 41.683 41.002 40.629C40.8046 41.2039 39.9915 42.5133 39.3179 42.8007C38.6443 43.0882 36.0892 43.1526 36.005 42.386C35.9208 41.6194 37.6049 38.9999 37.6049 38.9999Z" fill="#CCD6DD"/>
<path d="M40.481 41.9999C40.6097 42.5917 42.2257 44.8518 44.4868 43.7042C44.8428 44.3302 45.8756 46.0345 43.3555 45.9994C40.8354 45.9644 38.606 46.0345 39.0589 44.8518C39.5117 43.6692 40.481 41.9999 40.481 41.9999Z" fill="#CCD6DD"/>
<path d="M30.5515 36.9532C29.3668 35.5199 26.858 37.8454 26.1435 36.9804C25.7973 36.5614 26.0195 36.0181 26.4745 35.6264C27.2392 34.9658 27.7909 35.3497 28.1371 35.0513C28.3829 34.8399 28.37 34.5803 28.2239 34.4031C27.8845 33.9927 27.017 34.2072 26.3428 34.6051L26.0149 34.2088C25.811 33.9608 25.448 33.929 25.206 34.1388C24.9633 34.3479 24.9329 34.7171 25.1375 34.9642L25.4777 35.3762C24.9625 36.0741 24.7875 37.0006 25.3963 37.7366C26.5346 39.1115 29.0738 36.8257 29.8728 37.7926C30.1498 38.1283 30.0721 38.7688 29.4893 39.2708C28.6157 40.0255 27.8244 39.6719 27.469 39.9789C27.2963 40.1273 27.2643 40.4095 27.4492 40.6341C27.7445 40.9893 28.6819 40.9139 29.5844 40.3395C29.5852 40.3411 29.5852 40.3426 29.5859 40.3442L29.9565 40.7919C30.1612 41.0398 30.5234 41.0701 30.7661 40.8618C31.0088 40.6528 31.0385 40.282 30.8338 40.0349L30.4633 39.5872C30.4595 39.5825 30.4534 39.5794 30.4496 39.5747C31.0575 38.8146 31.263 37.812 30.5515 36.9532Z" fill="#67757F"/>
<path d="M30.1631 29.3964C30.17 29.3903 30.1777 29.3857 30.1846 29.3795C30.2376 29.3265 30.2775 29.2674 30.3236 29.2098C30.3558 29.1707 30.3911 29.1323 30.4211 29.0908C30.4487 29.0524 30.471 29.0132 30.4956 28.9741C31.586 27.2947 30.8711 24.4465 28.7124 22.288C26.5538 20.1286 23.7055 19.4137 22.0261 20.5049C21.9869 20.5287 21.9477 20.5517 21.9086 20.5786C21.8679 20.6086 21.8295 20.6447 21.7895 20.6769C21.7327 20.723 21.6736 20.7629 21.6206 20.8159C21.6137 20.822 21.6091 20.8305 21.6037 20.8374C21.5945 20.8451 21.5845 20.852 21.5761 20.8604L21.5799 20.8643C20.812 21.6798 20.8027 22.9414 21.5761 23.7147C22.3494 24.488 23.6111 24.4788 24.4266 23.7109L24.4351 23.7193C24.4197 23.7339 24.402 23.7447 24.3867 23.7593C23.5727 24.5725 23.5535 25.8702 24.3414 26.6589C25.1293 27.4467 26.4271 27.4268 27.2403 26.6135C27.2557 26.5982 27.2664 26.5805 27.281 26.5644L27.2895 26.5736C26.5215 27.3891 26.5116 28.65 27.2856 29.4241C28.0589 30.1973 29.3199 30.1881 30.1354 29.4195L30.14 29.4241C30.1477 29.4156 30.1546 29.4056 30.1631 29.3964Z" fill="#E1E8ED"/>
<path d="M20.6111 22C20.8531 22.6306 22.3367 23.8377 24.002 22.7128C24.002 22.9597 23.7593 24.1115 22.5786 24.7697C21.398 25.4279 20.0662 24.5775 20.0059 23.4533C19.9449 22.3291 20.6111 22 20.6111 22Z" fill="#CCD6DD"/>
<path d="M23.6051 24C23.9979 25.7885 25.9914 26.6831 27.002 25.629C26.8052 26.204 25.9914 27.5133 25.3177 27.8008C24.644 28.0883 22.0892 28.1527 22.005 27.3861C21.9208 26.6195 23.6051 24 23.6051 24Z" fill="#CCD6DD"/>
<path d="M26.4822 27C26.6117 27.5909 28.227 29.8519 30.4891 28.7043C30.8442 29.3303 31.8779 31.0337 29.3577 30.9995C26.8374 30.9644 24.608 31.0337 25.0608 29.8519C25.5129 28.6692 26.4822 27 26.4822 27Z" fill="#CCD6DD"/>
</g>
<defs>
<filter id="filter0_d" x="-3" y="-1" width="72" height="77" filterUnits="userSpaceOnUse" color-interpolation-filters="sRGB">
<feFlood flood-opacity="0" result="BackgroundImageFix"/>
<feColorMatrix in="SourceAlpha" type="matrix" values="0 0 0 0 0 0 0 0 0 0 0 0 0 0 0 0 0 0 127 0"/>
<feOffset dy="1"/>
<feGaussianBlur stdDeviation="6.5"/>
<feColorMatrix type="matrix" values="0 0 0 0 0.149578 0 0 0 0 0.206882 0 0 0 0 0.231441 0 0 0 0.15 0"/>
<feBlend mode="normal" in2="BackgroundImageFix" result="effect1_dropShadow"/>
<feBlend mode="normal" in="SourceGraphic" in2="effect1_dropShadow" result="shape"/>
</filter>
<clipPath id="clip0">
<rect width="68" height="125" fill="white"/>
</clipPath>
</defs>
</svg>
