<?xml version="1.0" encoding="iso-8859-1"?>
<!-- Generator: Adobe Illustrator 19.0.0, SVG Export Plug-In . SVG Version: 6.00 Build 0)  -->
<svg version="1.1" id="Capa_1" xmlns="http://www.w3.org/2000/svg" xmlns:xlink="http://www.w3.org/1999/xlink" x="0px" y="0px"
	 viewBox="0 0 512 512" style="enable-background:new 0 0 512 512;" xml:space="preserve">
<path style="fill:#FFAAB4;" d="M512,331.756c0,90.018-64.146,109.519-132.133,110.048c-45.665,0.356-82.577-8.263-123.92-8.263
	c-41.237,0-77.9,8.691-123.817,8.258C64.285,441.159,0,421.498,0,331.756c0-153.691,114.615-261.57,256-261.57
	C397.385,70.186,512,178.065,512,331.756z"/>
<path style="fill:#FF96A0;" d="M115.613,345.223c0-126.089,58.338-225.934,143.819-274.956c-1.148-0.014-2.281-0.082-3.432-0.082
	c-141.385,0-256,107.88-256,261.57c0,89.742,64.285,109.403,132.13,110.043c5.746,0.054,11.347-0.035,16.831-0.232
	C128.505,421.885,115.613,391.448,115.613,345.223z"/>
<ellipse transform="matrix(-0.5 -0.866 0.866 -0.5 302.5345 753.7194)" style="fill:#E6646E;" cx="368.844" cy="289.527" rx="70.978" ry="58.339"/>
<path style="fill:#4B3F4E;" d="M384.468,259.57c-13.148-22.774-37.711-33.705-57.641-26.879
	c-20.217,16.641-25.474,48.336-12.824,77.32c15.462,20.118,40.558,27.837,59.276,17.03
	C394.049,315.049,399.059,284.841,384.468,259.57z"/>
<ellipse transform="matrix(-0.5 0.866 -0.866 -0.5 465.688 310.2258)" style="fill:#E6646E;" cx="143.291" cy="289.543" rx="70.978" ry="58.339"/>
<path style="fill:#4B3F4E;" d="M127.666,259.57c13.148-22.774,37.711-33.705,57.641-26.879
	c20.217,16.641,25.474,48.336,12.824,77.32c-15.462,20.118-40.558,27.837-59.276,17.03
	C118.085,315.049,113.075,284.841,127.666,259.57z"/>
<g>
</g>
<g>
</g>
<g>
</g>
<g>
</g>
<g>
</g>
<g>
</g>
<g>
</g>
<g>
</g>
<g>
</g>
<g>
</g>
<g>
</g>
<g>
</g>
<g>
</g>
<g>
</g>
<g>
</g>
</svg>
