<svg width="50" height="118" viewBox="0 0 50 118" fill="none" xmlns="http://www.w3.org/2000/svg">
<path fill-rule="evenodd" clip-rule="evenodd" d="M30.4667 49.3464C40.5302 46.893 48 37.8189 48 27C48 14.2975 37.7025 4 25 4C12.2975 4 2 14.2975 2 27C2 37.638 9.22221 46.5892 19.0309 49.2178L24.8131 55L30.4667 49.3464Z" fill="white"/>
<path d="M21.9665 19.2867C21.8892 19.3563 21.8305 19.4401 21.7815 19.5321L21.776 19.5271L14.0336 35.2234L14.0412 35.2302C13.8976 35.4806 14.1378 35.99 14.63 36.4336C15.1215 36.8759 15.6876 37.0921 15.9657 36.9629L15.9726 36.9691L33.4144 30.0016L33.4089 29.996C33.511 29.9526 33.6035 29.8998 33.6815 29.8295C34.7598 28.8591 33.0113 25.7124 29.7765 22.8012C26.5418 19.8893 23.0447 18.3163 21.9665 19.2867Z" fill="#DD2E44"/>
<path d="M22.3987 22L14.215 35.0087L14.0317 35.4115L14.0388 35.4178C13.9035 35.6741 14.1299 36.1937 14.5935 36.6466C14.7444 36.7938 14.9005 36.9055 15.0546 37L25 25.1719L22.3987 22Z" fill="#EA596E"/>
<path d="M29.805 22.8464C32.9636 25.7431 34.7174 28.8307 33.7204 29.7439C32.7242 30.6572 29.3559 29.0502 26.1954 26.1548C23.0362 23.2581 21.2831 20.1699 22.2793 19.256C23.2763 18.3427 26.6445 19.9504 29.805 22.8464Z" fill="#A0041E"/>
<path d="M26.5137 22.8499C26.3744 22.9592 26.1923 23.0163 25.9997 22.9959C25.3919 22.9321 24.8808 22.7269 24.523 22.4028C24.1441 22.0598 23.9572 21.5999 24.0083 21.1379C24.0979 20.3281 24.9354 19.5849 26.3632 19.7351C26.9184 19.7928 27.1663 19.6196 27.174 19.5367C27.1838 19.4545 26.98 19.2337 26.4255 19.1753C25.817 19.1114 25.3065 18.9062 24.948 18.5822C24.5692 18.2391 24.3815 17.7785 24.4333 17.3173C24.5244 16.5075 25.3611 15.7643 26.7875 15.9144C27.1922 15.9565 27.4051 15.875 27.4954 15.8227C27.5682 15.7799 27.5969 15.7391 27.5997 15.716C27.6075 15.6338 27.4065 15.413 26.8498 15.3546C26.4661 15.3139 26.1874 14.9796 26.2294 14.606C26.2707 14.233 26.6152 13.9633 27.0004 14.0041C28.4267 14.1529 29.0821 15.0516 28.9918 15.8621C28.9015 16.6719 28.0647 17.4144 26.6369 17.2649C26.2322 17.2221 26.02 17.3037 25.9297 17.356C25.8576 17.3988 25.8282 17.4402 25.8254 17.4626C25.8163 17.5455 26.0186 17.7663 26.5753 17.8247C28.0017 17.9735 28.6571 18.8723 28.5668 19.6827C28.4764 20.4925 27.639 21.2357 26.2126 21.0856C25.8079 21.0435 25.595 21.1243 25.504 21.1766C25.4318 21.2194 25.4038 21.2609 25.401 21.284C25.3919 21.3662 25.5943 21.587 26.1503 21.6454C26.534 21.6855 26.8134 22.0204 26.7707 22.3933C26.7504 22.5802 26.653 22.7405 26.5137 22.8499Z" fill="#AA8DD8"/>
<path d="M34.9592 29.1043C36.0985 28.7656 36.8844 29.3007 37.0715 30.003C37.2586 30.7046 36.8533 31.593 35.7151 31.9298C35.2705 32.0611 35.1371 32.2849 35.155 32.3566C35.1746 32.4284 35.4004 32.5464 35.8439 32.4138C36.9826 32.077 37.7685 32.612 37.9556 33.3137C38.1444 34.0159 37.7379 34.9031 36.5986 35.2411C36.1545 35.3725 36.0206 35.5968 36.0402 35.668C36.0593 35.7391 36.2845 35.8564 36.7285 35.7257C37.0352 35.6345 37.3545 35.823 37.4411 36.1459C37.5266 36.4693 37.3481 36.805 37.0404 36.8962C35.9028 37.2336 35.1157 36.6998 34.9275 35.9969C34.7404 35.2952 35.1463 34.4081 36.2862 34.0701C36.7303 33.9381 36.8642 33.715 36.8446 33.6432C36.8255 33.5721 36.6009 33.4535 36.1569 33.5849C35.0175 33.9229 34.2316 33.3891 34.044 32.6862C33.8563 31.9839 34.2622 31.0968 35.4021 30.7588C35.845 30.628 35.979 30.4031 35.9599 30.3325C35.9403 30.2602 35.7163 30.1422 35.2716 30.2742C34.9644 30.3654 34.6462 30.1769 34.5596 29.8534C34.473 29.5305 34.652 29.1949 34.9592 29.1043Z" fill="#77B255"/>
<path d="M29.6436 27C29.4546 27 29.2682 26.9 29.1409 26.7094C28.9191 26.3746 28.9641 25.8872 29.2412 25.6198C29.3813 25.4842 32.7241 22.3193 37.4483 23.1338C37.8 23.1942 38.0436 23.5864 37.9935 24.0103C37.9433 24.4334 37.6206 24.731 37.2658 24.6674C33.0918 23.9529 30.0743 26.8016 30.0447 26.8303C29.9258 26.945 29.7844 27 29.6436 27Z" fill="#AA8DD8"/>
<path d="M17.9896 24C17.914 24 17.8369 23.9906 17.7605 23.9719C17.3397 23.8657 17.101 23.493 17.2275 23.1397C18.1288 20.6196 18.9458 16.5981 17.9419 15.5501C17.8289 15.4312 17.6603 15.3143 17.2721 15.339C16.5251 15.3865 16.5967 16.7089 16.5975 16.7223C16.6309 17.0903 16.3015 17.4109 15.864 17.4383C15.4193 17.461 15.043 17.1899 15.0112 16.8218C14.9285 15.9008 15.2705 14.1268 17.1519 14.0072C17.992 13.9538 18.6896 14.1989 19.1829 14.7132C21.069 16.6842 19.1542 22.399 18.7509 23.5244C18.6475 23.8136 18.3317 24 17.9896 24Z" fill="#77B255"/>
<path d="M32 20C32 20.552 31.552 21 31 21C30.448 21 30 20.552 30 20C30 19.448 30.448 19 31 19C31.552 19 32 19.448 32 20Z" fill="#5C913B"/>
<path d="M16 25.5C16 26.328 15.552 27 15 27C14.448 27 14 26.328 14 25.5C14 24.672 14.448 24 15 24C15.552 24 16 24.672 16 25.5Z" fill="#9266CC"/>
<path d="M37 27C37 27.552 36.552 28 36 28C35.448 28 35 27.552 35 27C35 26.448 35.448 26 36 26C36.552 26 37 26.448 37 27Z" fill="#5C913B"/>
<path d="M31 35C31 35.552 30.552 36 30 36C29.448 36 29 35.552 29 35C29 34.448 29.448 34 30 34C30.552 34 31 34.448 31 35Z" fill="#5C913B"/>
<path d="M34 16C34 16.552 33.328 17 32.5 17C31.672 17 31 16.552 31 16C31 15.448 31.672 15 32.5 15C33.328 15 34 15.448 34 16Z" fill="#FFCC4D"/>
<path d="M37 19.5C37 19.776 36.552 20 36 20C35.448 20 35 19.776 35 19.5C35 19.224 35.448 19 36 19C36.552 19 37 19.224 37 19.5Z" fill="#FFCC4D"/>
<path d="M35 22C35 22.552 34.328 23 33.5 23C32.672 23 32 22.552 32 22C32 21.448 32.672 21 33.5 21C34.328 21 35 21.448 35 22Z" fill="#FFCC4D"/>
<path d="M20 29C20 29.552 19.776 30 19.5 30C19.224 30 19 29.552 19 29C19 28.448 19.224 28 19.5 28C19.776 28 20 28.448 20 29Z" fill="#FFCC4D"/>
</svg>
