<svg width="67" height="123" viewBox="0 0 67 123" fill="none" xmlns="http://www.w3.org/2000/svg">
<g clip-path="url(#clip0)">
<g filter="url(#filter0_d)">
<path fill-rule="evenodd" clip-rule="evenodd" d="M39.4667 54.3464C49.5302 51.893 57 42.8189 57 32C57 19.2975 46.7025 9 34 9C21.2975 9 11 19.2975 11 32C11 42.638 18.2222 51.5892 28.0309 54.2178L33.8131 60L39.4667 54.3464Z" fill="white"/>
</g>
<path d="M30.9665 24.2867C30.8892 24.3563 30.8305 24.4401 30.7815 24.5321L30.776 24.5271L23.0336 40.2234L23.0412 40.2302C22.8976 40.4806 23.1378 40.99 23.63 41.4336C24.1215 41.8759 24.6876 42.0921 24.9657 41.9629L24.9726 41.9691L42.4144 35.0016L42.4089 34.996C42.511 34.9526 42.6035 34.8998 42.6815 34.8295C43.7598 33.8591 42.0113 30.7124 38.7765 27.8012C35.5418 24.8893 32.0447 23.3163 30.9665 24.2867Z" fill="#DD2E44"/>
<path d="M31.3987 27L23.215 40.0087L23.0317 40.4115L23.0388 40.4178C22.9035 40.6741 23.1299 41.1937 23.5935 41.6466C23.7444 41.7938 23.9005 41.9055 24.0546 42L34 30.1719L31.3987 27Z" fill="#EA596E"/>
<path d="M38.805 27.8464C41.9636 30.7431 43.7174 33.8307 42.7204 34.7439C41.7242 35.6572 38.3559 34.0502 35.1954 31.1548C32.0362 28.2581 30.2831 25.1699 31.2793 24.256C32.2763 23.3427 35.6445 24.9504 38.805 27.8464Z" fill="#A0041E"/>
<path d="M35.5137 27.8499C35.3744 27.9592 35.1923 28.0163 34.9997 27.9959C34.3919 27.9321 33.8808 27.7269 33.523 27.4028C33.1441 27.0598 32.9572 26.5999 33.0083 26.1379C33.0979 25.3281 33.9354 24.5849 35.3632 24.7351C35.9184 24.7928 36.1663 24.6196 36.174 24.5367C36.1838 24.4545 35.98 24.2337 35.4255 24.1753C34.817 24.1114 34.3065 23.9062 33.948 23.5822C33.5692 23.2391 33.3815 22.7785 33.4333 22.3173C33.5244 21.5075 34.3611 20.7643 35.7875 20.9144C36.1922 20.9565 36.4051 20.875 36.4954 20.8227C36.5682 20.7799 36.5969 20.7391 36.5997 20.716C36.6075 20.6338 36.4065 20.413 35.8498 20.3546C35.4661 20.3139 35.1874 19.9796 35.2294 19.606C35.2707 19.233 35.6152 18.9633 36.0004 19.0041C37.4267 19.1529 38.0821 20.0516 37.9918 20.8621C37.9015 21.6719 37.0647 22.4144 35.6369 22.2649C35.2322 22.2221 35.02 22.3037 34.9297 22.356C34.8576 22.3988 34.8282 22.4402 34.8254 22.4626C34.8163 22.5455 35.0186 22.7663 35.5753 22.8247C37.0017 22.9735 37.6571 23.8723 37.5668 24.6827C37.4764 25.4925 36.639 26.2357 35.2126 26.0856C34.8079 26.0435 34.595 26.1243 34.504 26.1766C34.4318 26.2194 34.4038 26.2609 34.401 26.284C34.3919 26.3662 34.5943 26.587 35.1503 26.6454C35.534 26.6855 35.8134 27.0204 35.7707 27.3933C35.7504 27.5802 35.653 27.7405 35.5137 27.8499Z" fill="#AA8DD8"/>
<path d="M43.9592 34.1043C45.0985 33.7656 45.8844 34.3007 46.0715 35.003C46.2586 35.7046 45.8533 36.593 44.7151 36.9298C44.2705 37.0611 44.1371 37.2849 44.155 37.3566C44.1746 37.4284 44.4004 37.5464 44.8439 37.4138C45.9826 37.077 46.7685 37.612 46.9556 38.3137C47.1444 39.0159 46.7379 39.9031 45.5986 40.2411C45.1545 40.3725 45.0206 40.5968 45.0402 40.668C45.0593 40.7391 45.2845 40.8564 45.7285 40.7257C46.0352 40.6345 46.3545 40.823 46.4411 41.1459C46.5266 41.4693 46.3481 41.805 46.0404 41.8962C44.9028 42.2336 44.1157 41.6998 43.9275 40.9969C43.7404 40.2952 44.1463 39.4081 45.2862 39.0701C45.7303 38.9381 45.8642 38.715 45.8446 38.6432C45.8255 38.5721 45.6009 38.4535 45.1569 38.5849C44.0175 38.9229 43.2316 38.3891 43.044 37.6862C42.8563 36.9839 43.2622 36.0968 44.4021 35.7588C44.845 35.628 44.979 35.4031 44.9599 35.3325C44.9403 35.2602 44.7163 35.1422 44.2716 35.2742C43.9644 35.3654 43.6462 35.1769 43.5596 34.8534C43.473 34.5305 43.652 34.1949 43.9592 34.1043Z" fill="#77B255"/>
<path d="M38.6436 32C38.4546 32 38.2682 31.9 38.1409 31.7094C37.9191 31.3746 37.9641 30.8872 38.2412 30.6198C38.3813 30.4842 41.7241 27.3193 46.4483 28.1338C46.8 28.1942 47.0436 28.5864 46.9935 29.0103C46.9433 29.4334 46.6206 29.731 46.2658 29.6674C42.0918 28.9529 39.0743 31.8016 39.0447 31.8303C38.9258 31.945 38.7844 32 38.6436 32Z" fill="#AA8DD8"/>
<path d="M26.9896 29C26.914 29 26.8369 28.9906 26.7605 28.9719C26.3397 28.8657 26.101 28.493 26.2275 28.1397C27.1288 25.6196 27.9458 21.5981 26.9419 20.5501C26.8289 20.4312 26.6603 20.3143 26.2721 20.339C25.5251 20.3865 25.5967 21.7089 25.5975 21.7223C25.6309 22.0903 25.3015 22.4109 24.864 22.4383C24.4193 22.461 24.043 22.1899 24.0112 21.8218C23.9285 20.9008 24.2705 19.1268 26.1519 19.0072C26.992 18.9538 27.6896 19.1989 28.1829 19.7132C30.069 21.6842 28.1542 27.399 27.7509 28.5244C27.6475 28.8136 27.3317 29 26.9896 29Z" fill="#77B255"/>
<path d="M41 25C41 25.552 40.552 26 40 26C39.448 26 39 25.552 39 25C39 24.448 39.448 24 40 24C40.552 24 41 24.448 41 25Z" fill="#5C913B"/>
<path d="M25 30.5C25 31.328 24.552 32 24 32C23.448 32 23 31.328 23 30.5C23 29.672 23.448 29 24 29C24.552 29 25 29.672 25 30.5Z" fill="#9266CC"/>
<path d="M46 32C46 32.552 45.552 33 45 33C44.448 33 44 32.552 44 32C44 31.448 44.448 31 45 31C45.552 31 46 31.448 46 32Z" fill="#5C913B"/>
<path d="M40 40C40 40.552 39.552 41 39 41C38.448 41 38 40.552 38 40C38 39.448 38.448 39 39 39C39.552 39 40 39.448 40 40Z" fill="#5C913B"/>
<path d="M43 21C43 21.552 42.328 22 41.5 22C40.672 22 40 21.552 40 21C40 20.448 40.672 20 41.5 20C42.328 20 43 20.448 43 21Z" fill="#FFCC4D"/>
<path d="M46 24.5C46 24.776 45.552 25 45 25C44.448 25 44 24.776 44 24.5C44 24.224 44.448 24 45 24C45.552 24 46 24.224 46 24.5Z" fill="#FFCC4D"/>
<path d="M44 27C44 27.552 43.328 28 42.5 28C41.672 28 41 27.552 41 27C41 26.448 41.672 26 42.5 26C43.328 26 44 26.448 44 27Z" fill="#FFCC4D"/>
<path d="M29 34C29 34.552 28.776 35 28.5 35C28.224 35 28 34.552 28 34C28 33.448 28.224 33 28.5 33C28.776 33 29 33.448 29 34Z" fill="#FFCC4D"/>
</g>
<defs>
<filter id="filter0_d" x="-2" y="-3" width="72" height="77" filterUnits="userSpaceOnUse" color-interpolation-filters="sRGB">
<feFlood flood-opacity="0" result="BackgroundImageFix"/>
<feColorMatrix in="SourceAlpha" type="matrix" values="0 0 0 0 0 0 0 0 0 0 0 0 0 0 0 0 0 0 127 0"/>
<feOffset dy="1"/>
<feGaussianBlur stdDeviation="6.5"/>
<feColorMatrix type="matrix" values="0 0 0 0 0.149578 0 0 0 0 0.206882 0 0 0 0 0.231441 0 0 0 0.15 0"/>
<feBlend mode="normal" in2="BackgroundImageFix" result="effect1_dropShadow"/>
<feBlend mode="normal" in="SourceGraphic" in2="effect1_dropShadow" result="shape"/>
</filter>
<clipPath id="clip0">
<rect width="67" height="123" fill="white"/>
</clipPath>
</defs>
</svg>
